<mxfile host="app.diagrams.net" modified="2023-10-01T21:14:58.322Z" agent="Mozilla/5.0 (Windows NT 10.0; Win64; x64) AppleWebKit/537.36 (KHTML, like Gecko) Chrome/117.0.0.0 Safari/537.36" etag="Nt9tfAYvepOZ43dLrsJz" version="21.8.2" type="device" pages="2">
  <diagram id="R2lEEEUBdFMjLlhIrx00" name="Page-1">
    <mxGraphModel dx="1613" dy="668" grid="1" gridSize="10" guides="1" tooltips="1" connect="1" arrows="1" fold="1" page="1" pageScale="1" pageWidth="850" pageHeight="1100" math="0" shadow="0" extFonts="Permanent Marker^https://fonts.googleapis.com/css?family=Permanent+Marker">
      <root>
        <mxCell id="0" />
        <mxCell id="1" parent="0" />
        <mxCell id="cNcr93QZwDhbHqzqr2SX-1" value="User" style="swimlane;childLayout=stackLayout;horizontal=1;startSize=50;horizontalStack=0;rounded=1;fontSize=14;fontStyle=0;strokeWidth=2;resizeParent=0;resizeLast=1;shadow=0;dashed=0;align=center;arcSize=4;whiteSpace=wrap;html=1;" parent="1" vertex="1">
          <mxGeometry x="330" y="238" width="160" height="160" as="geometry" />
        </mxCell>
        <mxCell id="cNcr93QZwDhbHqzqr2SX-2" value="&lt;u&gt;userID&lt;/u&gt;&lt;br&gt;firstName&lt;br&gt;lastName&lt;br&gt;email&lt;br&gt;password&lt;br&gt;birthday" style="align=left;strokeColor=none;fillColor=none;spacingLeft=4;fontSize=12;verticalAlign=top;resizable=0;rotatable=0;part=1;html=1;" parent="cNcr93QZwDhbHqzqr2SX-1" vertex="1">
          <mxGeometry y="50" width="160" height="110" as="geometry" />
        </mxCell>
        <mxCell id="cNcr93QZwDhbHqzqr2SX-4" value="Video" style="swimlane;childLayout=stackLayout;horizontal=1;startSize=50;horizontalStack=0;rounded=1;fontSize=14;fontStyle=0;strokeWidth=2;resizeParent=0;resizeLast=1;shadow=0;dashed=0;align=center;arcSize=4;whiteSpace=wrap;html=1;" parent="1" vertex="1">
          <mxGeometry x="930" y="230" width="160" height="180" as="geometry" />
        </mxCell>
        <mxCell id="cNcr93QZwDhbHqzqr2SX-5" value="&lt;u&gt;videoID&lt;/u&gt;&lt;br&gt;title&lt;br&gt;publishedDate&lt;br&gt;URL&lt;br&gt;country&lt;br&gt;tag&lt;br&gt;description&lt;br&gt;" style="align=left;strokeColor=none;fillColor=none;spacingLeft=4;fontSize=12;verticalAlign=top;resizable=0;rotatable=0;part=1;html=1;" parent="cNcr93QZwDhbHqzqr2SX-4" vertex="1">
          <mxGeometry y="50" width="160" height="130" as="geometry" />
        </mxCell>
        <mxCell id="cNcr93QZwDhbHqzqr2SX-6" value="TrendingStats" style="swimlane;childLayout=stackLayout;horizontal=1;startSize=50;horizontalStack=0;rounded=1;fontSize=14;fontStyle=0;strokeWidth=2;resizeParent=0;resizeLast=1;shadow=0;dashed=0;align=center;arcSize=4;whiteSpace=wrap;html=1;" parent="1" vertex="1">
          <mxGeometry x="1400" y="248" width="160" height="160" as="geometry" />
        </mxCell>
        <mxCell id="cNcr93QZwDhbHqzqr2SX-7" value="&lt;u&gt;trendDate&lt;br&gt;&lt;/u&gt;likeCount&lt;br&gt;dislikesCount&lt;br&gt;viewCount" style="align=left;strokeColor=none;fillColor=none;spacingLeft=4;fontSize=12;verticalAlign=top;resizable=0;rotatable=0;part=1;html=1;" parent="cNcr93QZwDhbHqzqr2SX-6" vertex="1">
          <mxGeometry y="50" width="160" height="110" as="geometry" />
        </mxCell>
        <mxCell id="cNcr93QZwDhbHqzqr2SX-9" value="Channel" style="swimlane;childLayout=stackLayout;horizontal=1;startSize=50;horizontalStack=0;rounded=1;fontSize=14;fontStyle=0;strokeWidth=2;resizeParent=0;resizeLast=1;shadow=0;dashed=0;align=center;arcSize=4;whiteSpace=wrap;html=1;" parent="1" vertex="1">
          <mxGeometry x="650" y="470" width="160" height="160" as="geometry" />
        </mxCell>
        <mxCell id="cNcr93QZwDhbHqzqr2SX-10" value="&lt;u&gt;channelID&lt;br&gt;&lt;/u&gt;channelName&lt;br&gt;mostPopularVideo&lt;br&gt;averageLikes&lt;br&gt;maxLikes&lt;br&gt;maxViews" style="align=left;strokeColor=none;fillColor=none;spacingLeft=4;fontSize=12;verticalAlign=top;resizable=0;rotatable=0;part=1;html=1;" parent="cNcr93QZwDhbHqzqr2SX-9" vertex="1">
          <mxGeometry y="50" width="160" height="110" as="geometry" />
        </mxCell>
        <mxCell id="cNcr93QZwDhbHqzqr2SX-14" value="Has" style="text;html=1;align=center;verticalAlign=middle;resizable=0;points=[];autosize=1;strokeColor=none;fillColor=none;" parent="1" vertex="1">
          <mxGeometry x="1240" y="290" width="40" height="30" as="geometry" />
        </mxCell>
        <mxCell id="cNcr93QZwDhbHqzqr2SX-15" value="1..*" style="text;html=1;align=center;verticalAlign=middle;resizable=0;points=[];autosize=1;strokeColor=none;fillColor=none;" parent="1" vertex="1">
          <mxGeometry x="1350" y="290" width="40" height="30" as="geometry" />
        </mxCell>
        <mxCell id="cNcr93QZwDhbHqzqr2SX-16" value="1..1" style="text;html=1;align=center;verticalAlign=middle;resizable=0;points=[];autosize=1;strokeColor=none;fillColor=none;" parent="1" vertex="1">
          <mxGeometry x="1090" y="280" width="40" height="30" as="geometry" />
        </mxCell>
        <mxCell id="cNcr93QZwDhbHqzqr2SX-19" value="Category" style="swimlane;childLayout=stackLayout;horizontal=1;startSize=50;horizontalStack=0;rounded=1;fontSize=14;fontStyle=0;strokeWidth=2;resizeParent=0;resizeLast=1;shadow=0;dashed=0;align=center;arcSize=4;whiteSpace=wrap;html=1;" parent="1" vertex="1">
          <mxGeometry x="1220" y="540" width="160" height="160" as="geometry" />
        </mxCell>
        <mxCell id="cNcr93QZwDhbHqzqr2SX-20" value="&lt;u&gt;categoryID&lt;br&gt;&lt;/u&gt;categoryName&lt;br&gt;mostPopularVideo&lt;br&gt;averageLikes&lt;br&gt;maxLikes&lt;br&gt;maxViews&lt;br&gt;mostPopularChannel" style="align=left;strokeColor=none;fillColor=none;spacingLeft=4;fontSize=12;verticalAlign=top;resizable=0;rotatable=0;part=1;html=1;" parent="cNcr93QZwDhbHqzqr2SX-19" vertex="1">
          <mxGeometry y="50" width="160" height="110" as="geometry" />
        </mxCell>
        <mxCell id="cNcr93QZwDhbHqzqr2SX-22" value="" style="endArrow=none;html=1;rounded=0;" parent="1" edge="1">
          <mxGeometry width="50" height="50" relative="1" as="geometry">
            <mxPoint x="1070" y="570" as="sourcePoint" />
            <mxPoint x="1070" y="410" as="targetPoint" />
          </mxGeometry>
        </mxCell>
        <mxCell id="cNcr93QZwDhbHqzqr2SX-23" value="" style="endArrow=none;html=1;rounded=0;entryX=-0.016;entryY=0.186;entryDx=0;entryDy=0;entryPerimeter=0;" parent="1" target="cNcr93QZwDhbHqzqr2SX-19" edge="1">
          <mxGeometry width="50" height="50" relative="1" as="geometry">
            <mxPoint x="1070" y="570" as="sourcePoint" />
            <mxPoint x="1120" y="520" as="targetPoint" />
          </mxGeometry>
        </mxCell>
        <mxCell id="cNcr93QZwDhbHqzqr2SX-24" value="" style="endArrow=none;html=1;rounded=0;" parent="1" edge="1">
          <mxGeometry width="50" height="50" relative="1" as="geometry">
            <mxPoint x="980" y="570" as="sourcePoint" />
            <mxPoint x="980" y="410" as="targetPoint" />
          </mxGeometry>
        </mxCell>
        <mxCell id="cNcr93QZwDhbHqzqr2SX-25" value="" style="endArrow=none;html=1;rounded=0;exitX=1.006;exitY=0.452;exitDx=0;exitDy=0;exitPerimeter=0;" parent="1" source="cNcr93QZwDhbHqzqr2SX-10" edge="1">
          <mxGeometry width="50" height="50" relative="1" as="geometry">
            <mxPoint x="820" y="570" as="sourcePoint" />
            <mxPoint x="980" y="570" as="targetPoint" />
          </mxGeometry>
        </mxCell>
        <mxCell id="cNcr93QZwDhbHqzqr2SX-26" value="" style="endArrow=none;html=1;rounded=0;entryX=-0.006;entryY=0.481;entryDx=0;entryDy=0;entryPerimeter=0;" parent="1" target="6B8EJGSdF1dBfBzvmN_F-8" edge="1" source="6B8EJGSdF1dBfBzvmN_F-4">
          <mxGeometry width="50" height="50" relative="1" as="geometry">
            <mxPoint x="1090" y="330" as="sourcePoint" />
            <mxPoint x="1140" y="280" as="targetPoint" />
          </mxGeometry>
        </mxCell>
        <mxCell id="cNcr93QZwDhbHqzqr2SX-27" value="" style="endArrow=none;html=1;rounded=0;exitX=1;exitY=0.25;exitDx=0;exitDy=0;" parent="1" source="cNcr93QZwDhbHqzqr2SX-2" edge="1">
          <mxGeometry width="50" height="50" relative="1" as="geometry">
            <mxPoint x="540" y="320" as="sourcePoint" />
            <mxPoint x="930" y="316" as="targetPoint" />
          </mxGeometry>
        </mxCell>
        <mxCell id="cNcr93QZwDhbHqzqr2SX-28" value="Has" style="text;html=1;align=center;verticalAlign=middle;resizable=0;points=[];autosize=1;strokeColor=none;fillColor=none;" parent="1" vertex="1">
          <mxGeometry x="1080" y="470" width="40" height="30" as="geometry" />
        </mxCell>
        <mxCell id="cNcr93QZwDhbHqzqr2SX-29" value="1..1" style="text;html=1;align=center;verticalAlign=middle;resizable=0;points=[];autosize=1;strokeColor=none;fillColor=none;" parent="1" vertex="1">
          <mxGeometry x="1180" y="540" width="40" height="30" as="geometry" />
        </mxCell>
        <mxCell id="cNcr93QZwDhbHqzqr2SX-30" value="1..1" style="text;html=1;align=center;verticalAlign=middle;resizable=0;points=[];autosize=1;strokeColor=none;fillColor=none;" parent="1" vertex="1">
          <mxGeometry x="810" y="540" width="40" height="30" as="geometry" />
        </mxCell>
        <mxCell id="cNcr93QZwDhbHqzqr2SX-31" value="1..*" style="text;html=1;align=center;verticalAlign=middle;resizable=0;points=[];autosize=1;strokeColor=none;fillColor=none;" parent="1" vertex="1">
          <mxGeometry x="1080" y="410" width="40" height="30" as="geometry" />
        </mxCell>
        <mxCell id="cNcr93QZwDhbHqzqr2SX-32" value="1..*" style="text;html=1;align=center;verticalAlign=middle;resizable=0;points=[];autosize=1;strokeColor=none;fillColor=none;" parent="1" vertex="1">
          <mxGeometry x="930" y="410" width="40" height="30" as="geometry" />
        </mxCell>
        <mxCell id="cNcr93QZwDhbHqzqr2SX-33" value="Has" style="text;html=1;align=center;verticalAlign=middle;resizable=0;points=[];autosize=1;strokeColor=none;fillColor=none;" parent="1" vertex="1">
          <mxGeometry x="930" y="470" width="40" height="30" as="geometry" />
        </mxCell>
        <mxCell id="cNcr93QZwDhbHqzqr2SX-37" value="" style="endArrow=none;html=1;rounded=0;" parent="1" edge="1">
          <mxGeometry width="50" height="50" relative="1" as="geometry">
            <mxPoint x="690" y="318" as="sourcePoint" />
            <mxPoint x="690" y="270" as="targetPoint" />
          </mxGeometry>
        </mxCell>
        <mxCell id="cNcr93QZwDhbHqzqr2SX-38" value="0..*" style="text;html=1;align=center;verticalAlign=middle;resizable=0;points=[];autosize=1;strokeColor=none;fillColor=none;" parent="1" vertex="1">
          <mxGeometry x="890" y="288" width="40" height="30" as="geometry" />
        </mxCell>
        <mxCell id="cNcr93QZwDhbHqzqr2SX-40" value="0..*" style="text;html=1;align=center;verticalAlign=middle;resizable=0;points=[];autosize=1;strokeColor=none;fillColor=none;" parent="1" vertex="1">
          <mxGeometry x="490" y="288" width="40" height="30" as="geometry" />
        </mxCell>
        <mxCell id="cNcr93QZwDhbHqzqr2SX-41" value="Favorite" style="text;html=1;align=center;verticalAlign=middle;resizable=0;points=[];autosize=1;strokeColor=none;fillColor=none;" parent="1" vertex="1">
          <mxGeometry x="655" y="320" width="70" height="30" as="geometry" />
        </mxCell>
        <mxCell id="cNcr93QZwDhbHqzqr2SX-42" value="rank" style="whiteSpace=wrap;html=1;align=center;" parent="1" vertex="1">
          <mxGeometry x="640" y="230" width="100" height="40" as="geometry" />
        </mxCell>
        <mxCell id="6B8EJGSdF1dBfBzvmN_F-3" value="" style="endArrow=none;html=1;rounded=0;entryX=0.017;entryY=0.349;entryDx=0;entryDy=0;entryPerimeter=0;" edge="1" parent="1" target="6B8EJGSdF1dBfBzvmN_F-2">
          <mxGeometry width="50" height="50" relative="1" as="geometry">
            <mxPoint x="1090" y="330" as="sourcePoint" />
            <mxPoint x="1403" y="328" as="targetPoint" />
          </mxGeometry>
        </mxCell>
        <mxCell id="6B8EJGSdF1dBfBzvmN_F-2" value="" style="rhombus;whiteSpace=wrap;html=1;fillColor=#000000;" vertex="1" parent="1">
          <mxGeometry x="1090" y="310" width="40" height="30" as="geometry" />
        </mxCell>
        <mxCell id="6B8EJGSdF1dBfBzvmN_F-8" value="" style="whiteSpace=wrap;html=1;aspect=fixed;fillColor=none;" vertex="1" parent="1">
          <mxGeometry x="1390" y="238" width="180" height="180" as="geometry" />
        </mxCell>
        <mxCell id="6B8EJGSdF1dBfBzvmN_F-12" value="" style="endArrow=none;html=1;rounded=0;entryX=-0.006;entryY=0.481;entryDx=0;entryDy=0;entryPerimeter=0;" edge="1" parent="1" source="6B8EJGSdF1dBfBzvmN_F-2" target="6B8EJGSdF1dBfBzvmN_F-4">
          <mxGeometry width="50" height="50" relative="1" as="geometry">
            <mxPoint x="1130" y="325" as="sourcePoint" />
            <mxPoint x="1389" y="325" as="targetPoint" />
          </mxGeometry>
        </mxCell>
        <mxCell id="6B8EJGSdF1dBfBzvmN_F-4" value="PK" style="whiteSpace=wrap;html=1;aspect=fixed;" vertex="1" parent="1">
          <mxGeometry x="1370" y="315" width="20" height="20" as="geometry" />
        </mxCell>
      </root>
    </mxGraphModel>
  </diagram>
  <diagram id="XJVdLd3BiJRhBxe-E8fc" name="Page-2">
    <mxGraphModel dx="1290" dy="534" grid="1" gridSize="10" guides="1" tooltips="1" connect="1" arrows="1" fold="1" page="1" pageScale="1" pageWidth="850" pageHeight="1100" math="0" shadow="0">
      <root>
        <mxCell id="0" />
        <mxCell id="1" parent="0" />
      </root>
    </mxGraphModel>
  </diagram>
</mxfile>
